<?xml version="1.0" encoding="utf-8"?>
<!-- Generator: Adobe Illustrator 17.1.0, SVG Export Plug-In . SVG Version: 6.00 Build 0)  -->
<!DOCTYPE svg PUBLIC "-//W3C//DTD SVG 1.1//EN" "http://www.w3.org/Graphics/SVG/1.1/DTD/svg11.dtd">
<svg version="1.1" xmlns="http://www.w3.org/2000/svg" xmlns:xlink="http://www.w3.org/1999/xlink" x="0px" y="0px"
	 viewBox="0 0 957.253 275.288" enable-background="new 0 0 957.253 275.288" xml:space="preserve">
<g id="Layer_2">
	<rect x="-13.311" y="-3.045" fill="#2F261E" width="982" height="278"/>
</g>
<g id="Layer_1">
	<g>
		<g>
			<path fill="#FFFFFF" d="M33.375,5.04c0,0-25.514,36.782-29.978,59.956c-2.658,13.796-7.654,34.444,3.828,46.564
				c11.48,12.118,28.702,21.687,37.632,25.515c8.931,3.825,19.136,7.014,24.239,15.307c5.103,8.293,3.827,14.033,12.119,14.67
				c8.291,0.637,12.119-2.552,11.481-8.932c-0.638-6.377-3.827-13.394-10.843-19.135c-7.017-5.738-10.343-8.352-10.843-17.22
				c-0.851-15.095,1.064-32.317,1.064-32.317s-4.253-2.127-6.166,11.267c-1.914,13.394-3.827,22.326-7.655,20.411
				c-3.827-1.915-17.89-5.741-28.065-11.481c-7.855-4.431-18.584-10.771-17.222-23.599C17.005,47.988,33.375,5.04,33.375,5.04z"/>
			<path fill="#FFFFFF" d="M42.306,49.051c0,0-13.819,15.735-17.648,33.168c-2.389,10.89-5.315,26.788-5.315,26.788l11.481,6.38
				c0,0,0-13.608,3.19-33.306C35.927,70.265,42.306,49.051,42.306,49.051z"/>
			<path fill="#FFFFFF" d="M60.627,66.273c0,0-13.819,15.735-17.646,33.168c-2.392,10.887-5.316,26.791-5.316,26.791l11.481,6.377
				c0,0-4.83-11.759,0-34.23C52.344,83.495,60.627,66.273,60.627,66.273z"/>
		</g>
		<g>
			<path fill="#FFFFFF" d="M165.88,5c0,0,25.513,36.783,29.979,59.959c2.656,13.793,7.655,34.442-3.827,46.562
				c-11.481,12.121-28.705,21.687-37.634,25.515c-8.929,3.825-19.136,7.017-24.239,15.307c-5.103,8.293-3.827,14.033-12.118,14.67
				c-8.293,0.639-12.119-2.55-11.481-8.929c0.637-6.38,3.827-13.397,10.843-19.135c7.017-5.741,10.344-8.352,10.844-17.222
				c0.851-15.095-1.064-32.317-1.064-32.317s4.252-2.127,6.166,11.267c1.913,13.394,3.827,22.326,7.655,20.411
				c3.827-1.913,17.889-5.741,28.065-11.479c7.855-4.431,18.584-10.773,17.221-23.602C182.251,47.948,165.88,5,165.88,5z"/>
			<path fill="#FFFFFF" d="M156.951,49.01c0,0,13.819,15.735,17.646,33.168c2.39,10.89,5.315,26.788,5.315,26.788l-11.481,6.38
				c0,0,0-13.606-3.189-33.306C163.328,70.224,156.951,49.01,156.951,49.01z"/>
			<path fill="#FFFFFF" d="M138.63,66.232c0,0,13.819,15.735,17.648,33.168c2.389,10.887,5.315,26.791,5.315,26.791l-11.481,6.377
				c0,0,4.83-11.759,0-34.228C146.912,83.457,138.63,66.232,138.63,66.232z"/>
		</g>
		<path fill="#FFFFFF" d="M144.742,247.909l0.014-0.009l-25.851-44.778V166.86h0.11c2.155,0,3.903-1.751,3.903-3.911
			c0-2.162-1.747-3.911-3.903-3.911H79.428c-2.167,0-3.916,1.749-3.916,3.911c0,2.16,1.749,3.911,3.916,3.911h0.207v36.25
			L53.772,247.9c-2.255,3.911-3.458,7.81-3.468,11.579c-0.037,4.591,1.971,8.922,5.518,11.724c3.531,2.837,8.306,4.215,13.833,4.222
			h59.228c5.521-0.007,10.289-1.385,13.816-4.222c3.552-2.802,5.558-7.133,5.52-11.724c-0.009-3.768-1.215-7.675-3.451-11.569
			H144.742z M86.126,225.287c0,0-12.268,21.768-16.628,28.796c-2.756,4.45-0.979,10.023,2.902,13.527h-2.746
			c-8.612-0.318-11.376-3.457-11.541-8.131c0-2.043,0.686-4.678,2.418-7.668l26.917-46.614l-0.011-38.336h23.661v38.343
			l11.588,20.083H86.126z"/>
	</g>
	<path fill="#FFFFFF" d="M179.931,160.545h43.983c45.624,0,68.435,22.483,68.435,56.455v0.329c0,33.971-23.304,58.095-69.748,58.095
		h-42.67V160.545z M224.734,241.946c17.56,0,28.884-7.221,28.884-23.797v-0.328c0-16.576-11.323-23.797-28.884-23.797h-6.4v47.922
		H224.734z"/>
	<path fill="#FFFFFF" d="M302.849,160.545h97.977v31.51h-60.23v11.652h56.127v27.735h-56.127v12.473h61.05v31.509h-98.797V160.545z"
		/>
	<path fill="#FFFFFF" d="M411.982,160.545h97.975v31.51h-60.229v11.652h56.127v27.735h-56.127v12.473h61.05v31.509h-98.796V160.545z
		"/>
	<path fill="#FFFFFF" d="M521.113,160.545h56.127c20.351,0,33.315,5.087,41.357,13.129c6.892,6.893,10.503,15.427,10.503,27.243
		v0.328c0,16.74-8.699,28.392-22.648,35.121l26.75,39.058h-43.818l-21.664-32.822h-0.328h-7.878v32.822h-38.402V160.545z
		 M576.092,215.195c9.19,0,14.77-4.103,14.77-11.16v-0.328c0-7.385-5.744-10.996-14.607-10.996h-16.74v22.484H576.092z"/>
	<g>
		<path fill="#FFFFFF" d="M638.367,160.545h38.402v82.057h53.995v32.822h-92.397V160.545z"/>
	</g>
	<g>
		<path fill="#FFFFFF" d="M758.187,159.725h38.074l48.414,115.7H802.99l-6.072-15.426H756.71l-5.908,15.426h-41.028L758.187,159.725
			z M787.399,232.755l-10.503-27.899l-10.503,27.899H787.399z"/>
		<path fill="#FFFFFF" d="M849.429,160.545h64.333c15.919,0,25.93,3.61,32.659,10.339c4.102,4.103,7.057,10.011,7.057,17.889v0.328
			c0,13.621-8.206,21.991-20.515,26.258c14.77,4.267,24.29,12.144,24.29,27.899v0.329c0,18.38-15.098,31.837-44.147,31.837h-63.676
			V160.545z M903.587,205.677c8.206,0,12.145-2.79,12.145-7.878v-0.328c0-5.088-4.104-7.878-12.31-7.878h-16.575v16.084H903.587z
			 M906.049,246.377c8.369,0,12.636-3.446,12.636-8.37v-0.328c0-4.924-4.102-8.37-12.473-8.37h-19.365v17.068H906.049z"/>
	</g>
	<g>
	</g>
	<g>
	</g>
	<g>
	</g>
	<g>
	</g>
	<g>
	</g>
	<g>
	</g>
	<g>
	</g>
	<g>
	</g>
	<g>
	</g>
	<g>
	</g>
	<g>
	</g>
	<g>
	</g>
	<g>
	</g>
	<g>
	</g>
	<g>
	</g>
</g>
</svg>
